PathFileType	4	(X/Y/Z)	c:/Users/goper/Files/vsCode/490R/osim_files/C15/C15_Fast_05.trc
DataRate	CameraRate	NumFrames	NumMarkers	Units                	OrigDataRate	OrigDataStartFrame	OrigNumFrames
250.00	250.00	11	36	mm	250.0	2034	2711
                Frame#	Time	LPSIS			LASIS			LTH1			LTH2			LTH3			LTH4			LLFE			LMFE			LSH1			LSH2			LSH3			LSH4			LLMAL			LMMAL			LCAL			LMTP5			LTOE			LMTP1			RPSIS			RASIS			RTH1			RTH2			RTH3			RTH4			RLFE			RMFE			RSH1			RSH2			RSH3			RSH4			RLMAL			RMMAL			RCAL			RMTP1			RTOE			RMTP5		
		X1	Y1	Z1	X2	Y2	Z2	X3	Y3	Z3	X4	Y4	Z4	X5	Y5	Z5	X6	Y6	Z6	X7	Y7	Z7	X8	Y8	Z8	X9	Y9	Z9	X10	Y10	Z10	X11	Y11	Z11	X12	Y12	Z12	X13	Y13	Z13	X14	Y14	Z14	X15	Y15	Z15	X16	Y16	Z16	X17	Y17	Z17	X18	Y18	Z18	X19	Y19	Z19	X20	Y20	Z20	X21	Y21	Z21	X22	Y22	Z22	X23	Y23	Z23	X24	Y24	Z24	X25	Y25	Z25	X26	Y26	Z26	X27	Y27	Z27	X28	Y28	Z28	X29	Y29	Z29	X30	Y30	Z30	X31	Y31	Z31	X32	Y32	Z32	X33	Y33	Z33	X34	Y34	Z34	X35	Y35	Z35	X36	Y36	Z36

2034	8.13200	-3336.84937	1036.24255	264.69739	-3500.16724	1011.24677	307.56326	-3477.01367	617.08173	366.33374	-3523.59619	631.57080	355.37839	-3484.02026	573.59460	350.86914	-3529.61035	588.12280	342.80374	0.00000	0.00000	0.00000	0.00000	0.00000	0.00000	-3437.92529	398.33792	342.76923	-3433.40356	352.27063	343.64630	-3494.85083	389.09659	330.71481	-3484.90356	345.35583	334.68973	0.00000	0.00000	0.00000	-3435.24756	124.22842	183.24770	0.00000	0.00000	0.00000	0.00000	0.00000	0.00000	-752.19226	734.81342	2361.56470	0.00000	0.00000	0.00000	0.00000	0.00000	0.00000	-3462.78662	1001.34033	61.28122	0.00000	0.00000	0.00000	0.00000	0.00000	0.00000	0.00000	0.00000	0.00000	-3532.76514	643.43451	5.33349	0.00000	0.00000	0.00000	-3712.72632	636.52905	328.69406	0.00000	0.00000	0.00000	0.00000	0.00000	0.00000	-3363.97510	453.56436	13.97010	-3373.55127	412.45053	9.13270	0.00000	0.00000	0.00000	0.00000	0.00000	0.00000	-3136.36768	315.66165	121.83711	-3196.99683	126.74390	173.22887	-3202.82227	84.00175	118.65742	-3141.32300	142.42867	57.57341
2035	8.13600	0.00000	0.00000	0.00000	-3504.41772	1011.73199	307.90051	-3478.82617	617.21539	366.22702	-3525.65991	631.44788	355.37222	-3485.59351	573.66064	350.77936	-3531.37134	587.96735	342.78909	0.00000	0.00000	0.00000	-3397.31152	525.73962	86.39432	-3438.72119	398.50369	342.74615	-3434.04785	352.34589	343.59763	-3495.64331	389.06180	330.78296	-3485.66870	345.36139	334.74988	-3421.88452	96.35938	273.93210	-3435.39380	124.35674	183.17975	-3356.52344	78.65828	236.33519	0.00000	0.00000	0.00000	-752.15027	734.79926	2361.53662	0.00000	0.00000	0.00000	0.00000	0.00000	0.00000	-3467.50830	1002.34998	61.50583	0.00000	0.00000	0.00000	0.00000	0.00000	0.00000	-3547.92407	598.20270	7.54689	-3540.22827	645.42719	4.96704	0.00000	0.00000	0.00000	0.00000	0.00000	0.00000	0.00000	0.00000	0.00000	0.00000	0.00000	0.00000	0.00000	0.00000	0.00000	-3382.58447	414.06848	8.87111	0.00000	0.00000	0.00000	-3231.75952	254.61499	155.97298	-3145.08716	314.12253	121.21222	-3209.51855	126.19294	171.81770	-3215.58765	83.40874	117.08893	0.00000	0.00000	0.00000
2036	8.14000	-3345.51538	1037.29517	264.74466	-3508.64062	1012.20703	308.23773	-3480.71289	617.41736	366.17596	-3527.68921	631.32751	355.38019	-3487.30542	573.81647	350.72766	-3533.08472	587.80566	342.78210	0.00000	0.00000	0.00000	0.00000	0.00000	0.00000	-3439.64160	398.68704	342.79080	-3434.78613	352.50909	343.65967	-3496.42114	389.01706	330.78226	-3486.22900	345.34653	334.75568	-3422.00977	96.48137	273.88049	-3435.53857	124.47418	183.11490	-3356.55298	78.77562	236.29631	0.00000	0.00000	0.00000	-752.13177	734.75104	2361.56982	0.00000	0.00000	0.00000	0.00000	0.00000	0.00000	-3472.33057	1003.41382	61.73044	0.00000	0.00000	0.00000	0.00000	0.00000	0.00000	-3555.40503	600.18274	7.18208	-3547.69360	647.51093	4.62567	0.00000	0.00000	0.00000	0.00000	0.00000	0.00000	0.00000	0.00000	0.00000	-3369.30518	459.34546	9.24269	0.00000	0.00000	0.00000	-3391.70508	415.75714	8.55728	0.00000	0.00000	0.00000	-3242.02686	254.54555	155.50696	-3153.92212	312.24469	120.58248	-3222.39233	125.52519	170.43893	-3244.38843	92.68218	117.31575	0.00000	0.00000	0.00000
2037	8.14400	0.00000	0.00000	0.00000	-3512.74487	1012.63513	308.49496	-3482.53369	617.62946	366.10294	-3529.67139	631.22412	355.41129	0.00000	0.00000	0.00000	-3534.78198	587.67981	342.79852	0.00000	0.00000	0.00000	-3298.00635	440.60199	195.55794	-3440.42261	398.73111	342.85257	-3434.91821	352.86197	343.10349	-3497.21118	388.97470	330.79745	-3487.10889	345.42636	334.79013	0.00000	0.00000	0.00000	-3435.66357	124.59592	183.06558	-3356.61084	78.88524	236.26445	0.00000	0.00000	0.00000	-752.15405	734.72479	2361.59277	0.00000	0.00000	0.00000	0.00000	0.00000	0.00000	-3477.03320	1004.40485	61.89138	0.00000	0.00000	0.00000	0.00000	0.00000	0.00000	-3562.82495	602.15179	6.88503	-3555.03613	649.54181	4.29476	0.00000	0.00000	0.00000	-3423.55396	413.56592	7.06027	0.00000	0.00000	0.00000	0.00000	0.00000	0.00000	0.00000	0.00000	0.00000	-3400.63062	417.34131	8.31845	-3168.89917	255.47745	45.02647	0.00000	0.00000	0.00000	-3160.91187	310.23727	119.10451	-3235.47144	124.49839	169.62289	-3258.64282	92.84156	115.80950	0.00000	0.00000	0.00000
2038	8.14800	-3354.16650	1038.10352	264.64066	-3516.99146	1013.10645	308.81897	-3484.39087	617.86938	366.01483	-3531.62939	631.16040	355.40610	0.00000	0.00000	0.00000	-3536.45386	587.55658	342.81500	0.00000	0.00000	0.00000	0.00000	0.00000	0.00000	-3441.47119	398.96030	342.99759	-3438.05151	354.08014	344.31207	-3498.16406	389.00381	330.79886	-3487.85498	345.44400	334.75732	0.00000	0.00000	0.00000	-3435.79663	124.75224	183.04263	-3356.66382	78.97343	236.22658	0.00000	0.00000	0.00000	-752.13489	734.73169	2361.57568	0.00000	0.00000	0.00000	0.00000	0.00000	0.00000	-3481.87061	1005.43994	62.11821	0.00000	0.00000	0.00000	0.00000	0.00000	0.00000	-3570.34351	604.27374	6.62576	-3562.27319	651.59186	3.99211	0.00000	0.00000	0.00000	0.00000	0.00000	0.00000	0.00000	0.00000	0.00000	0.00000	0.00000	0.00000	-3386.97876	460.67776	8.89397	-3409.64038	419.01251	8.07077	0.00000	0.00000	0.00000	-3262.35449	253.61719	154.57776	-3171.61646	307.79086	119.31019	-3248.72437	123.79530	167.67125	-3273.17114	92.99133	114.27488	0.00000	0.00000	0.00000
2039	8.15200	0.00000	0.00000	0.00000	-3521.16943	1013.57324	309.09097	-3486.17114	618.09143	365.91458	-3533.63452	631.10828	355.39575	0.00000	0.00000	0.00000	-3538.03564	587.43231	342.84656	0.00000	0.00000	0.00000	-3552.87671	490.86697	147.14697	-3442.53540	399.17142	343.12589	-3438.94189	354.24762	344.41541	-3499.04541	388.99417	330.74936	-3488.73242	345.46875	334.80783	0.00000	0.00000	0.00000	-3435.94727	124.92590	183.03452	0.00000	0.00000	0.00000	0.00000	0.00000	0.00000	-752.13635	734.71460	2361.55884	0.00000	0.00000	0.00000	0.00000	0.00000	0.00000	-3486.48706	1006.35980	62.27396	0.00000	0.00000	0.00000	0.00000	0.00000	0.00000	-3577.73560	606.29297	6.35334	-3569.61450	653.74365	3.75269	0.00000	0.00000	0.00000	-3542.02881	506.79013	23.30849	-3441.62085	415.15338	6.60962	0.00000	0.00000	0.00000	-3395.58276	461.14301	8.82788	0.00000	0.00000	0.00000	0.00000	0.00000	0.00000	-3272.85986	253.02522	154.07147	-3180.63135	305.12781	118.77133	-3261.09326	122.63551	166.72543	-3287.88843	93.15738	112.70692	0.00000	0.00000	0.00000
2040	8.15600	-3362.74438	1039.00159	264.41818	-3525.25293	1013.98938	309.31888	-3487.93115	618.35413	365.83636	-3535.63843	631.09283	355.42941	0.00000	0.00000	0.00000	-3539.62061	587.28680	342.87790	0.00000	0.00000	0.00000	0.00000	0.00000	0.00000	-3443.39673	399.25525	343.24799	-3439.75244	354.37778	344.50604	-3500.05518	389.05151	330.80359	-3489.50879	345.50589	334.79187	0.00000	0.00000	0.00000	-3436.05225	125.07495	183.02942	0.00000	0.00000	0.00000	0.00000	0.00000	0.00000	-752.17108	734.69995	2361.56885	0.00000	0.00000	0.00000	0.00000	0.00000	0.00000	-3491.27075	1007.33185	62.45203	0.00000	0.00000	0.00000	0.00000	0.00000	0.00000	-3585.22437	608.49725	6.09711	-3576.90942	655.85986	3.51887	0.00000	0.00000	0.00000	0.00000	0.00000	0.00000	-3450.46191	415.84180	6.31230	0.00000	0.00000	0.00000	0.00000	0.00000	0.00000	-3414.26221	472.84802	34.91613	-3210.52246	314.77832	187.86803	-3283.24707	252.15700	153.50360	-3189.81738	302.22330	118.24879	-3276.42676	121.97248	164.34882	-3302.85059	93.32674	111.10931	0.00000	0.00000	0.00000
2041	8.16000	0.00000	0.00000	0.00000	-3529.45703	1014.38831	309.55630	-3489.66089	618.55353	365.76324	-3537.63184	631.09570	355.48779	0.00000	0.00000	0.00000	-3541.27466	587.23834	342.92380	0.00000	0.00000	0.00000	-3569.06445	494.80276	146.76401	-3444.38916	399.43042	343.35129	-3440.69141	354.58682	344.61697	-3500.93506	389.06161	330.78766	-3490.44336	345.56454	334.79294	0.00000	0.00000	0.00000	-3436.21533	125.26389	183.01309	0.00000	0.00000	0.00000	0.00000	0.00000	0.00000	-752.22058	734.72705	2361.58765	0.00000	0.00000	0.00000	0.00000	0.00000	0.00000	-3495.96387	1008.23438	62.56659	0.00000	0.00000	0.00000	0.00000	0.00000	0.00000	-3592.55981	610.57538	5.83639	-3584.03345	657.93323	3.27963	0.00000	0.00000	0.00000	-3558.40576	510.41324	22.89910	-3459.01392	416.49597	5.96497	0.00000	0.00000	0.00000	0.00000	0.00000	0.00000	0.00000	0.00000	0.00000	0.00000	0.00000	0.00000	-3293.87109	251.18701	152.92284	-3198.96558	299.15234	117.69324	0.00000	0.00000	0.00000	0.00000	0.00000	0.00000	-3374.55737	210.05095	67.51105
2042	8.16400	-3369.44336	1040.78662	262.59012	-3533.56421	1014.78394	309.73718	-3491.33105	618.76172	365.66019	0.00000	0.00000	0.00000	-3540.08960	630.85254	355.56311	-3542.94849	587.16266	342.97418	-3508.49243	504.39294	323.77731	0.00000	0.00000	0.00000	-3445.37769	399.65997	343.46634	-3441.48975	354.78891	344.66501	-3501.92700	389.11914	330.83176	-3491.20581	345.61099	334.79367	-3422.63452	97.33029	273.82028	-3436.33228	125.45264	182.99086	0.00000	0.00000	0.00000	0.00000	0.00000	0.00000	-752.22101	734.74426	2361.55249	0.00000	0.00000	0.00000	0.00000	0.00000	0.00000	-3500.74048	1009.13629	62.71317	0.00000	0.00000	0.00000	0.00000	0.00000	0.00000	-3599.89819	612.73035	5.63395	-3591.08838	659.98126	3.06879	0.00000	0.00000	0.00000	0.00000	0.00000	0.00000	-3467.73291	417.25827	5.67593	0.00000	0.00000	0.00000	-3421.68872	461.83792	8.21324	0.00000	0.00000	0.00000	0.00000	0.00000	0.00000	-3304.49976	249.93425	152.29739	-3207.74268	296.10205	117.40586	0.00000	0.00000	0.00000	-3566.54541	512.23267	22.73686	0.00000	0.00000	0.00000
2043	8.16800	0.00000	0.00000	0.00000	-3537.56299	1015.11713	309.91458	-3493.11475	619.03650	365.61288	0.00000	0.00000	0.00000	-3542.01221	630.84448	355.53857	-3544.58862	587.10437	343.05048	-3509.74756	504.55002	323.86267	0.00000	0.00000	0.00000	-3446.18701	399.80283	343.53506	-3442.18750	354.99142	344.71158	-3502.74219	389.13989	330.85660	-3492.02222	345.73520	334.87375	-3422.80542	97.54530	273.78641	-3436.46533	125.66201	183.00101	0.00000	0.00000	0.00000	0.00000	0.00000	0.00000	-752.16443	734.75049	2361.55518	0.00000	0.00000	0.00000	0.00000	0.00000	0.00000	-3505.35229	1009.94257	62.80690	0.00000	0.00000	0.00000	0.00000	0.00000	0.00000	-3607.15894	614.78894	5.43623	-3598.19922	662.06555	2.90838	0.00000	0.00000	0.00000	-3574.64941	514.06451	22.52779	-3476.41333	417.93652	5.30339	0.00000	0.00000	0.00000	-3430.30469	461.95895	8.13116	0.00000	0.00000	0.00000	0.00000	0.00000	0.00000	-3315.40576	248.67639	151.68553	-3209.36938	295.08215	114.43394	-3318.77441	118.62661	159.52293	0.00000	0.00000	0.00000	0.00000	0.00000	0.00000
2044	8.17200	-3379.44653	1040.78162	263.91058	-3541.70923	1015.40131	310.09650	-3494.94653	619.35443	365.56757	0.00000	0.00000	0.00000	-3543.88330	630.82910	355.51181	-3546.29443	587.07922	343.10785	-3510.86035	504.53375	323.96844	0.00000	0.00000	0.00000	-3447.03320	400.01447	343.56656	-3442.93970	355.20688	344.78091	-3503.66821	389.22580	330.93707	-3492.81665	345.86292	334.90948	-3422.99536	97.78511	273.72781	-3436.62183	125.85497	182.97789	0.00000	0.00000	0.00000	0.00000	0.00000	0.00000	-752.18811	734.75922	2361.56885	0.00000	0.00000	0.00000	0.00000	0.00000	0.00000	-3510.07373	1010.74835	62.90244	0.00000	0.00000	0.00000	0.00000	0.00000	0.00000	-3614.43774	616.90509	5.25292	-3605.15503	664.07324	2.72732	0.00000	0.00000	0.00000	-3582.59546	515.84753	22.39166	-3484.86353	418.43518	5.01805	0.00000	0.00000	0.00000	0.00000	0.00000	0.00000	0.00000	0.00000	0.00000	0.00000	0.00000	0.00000	-3326.42505	247.10852	151.11209	-3226.75806	288.73004	115.84507	-3332.83496	116.76491	158.81848	-3363.50977	94.19046	104.11732	0.00000	0.00000	0.00000
